<svg width="1200" height="630" viewBox="0 0 1200 630" fill="none" xmlns="http://www.w3.org/2000/svg" role="img" aria-labelledby="title desc">
  <title id="title">HangMan - The Game</title>
  <desc id="desc">Anteprima social del progetto HangMan con lettere nascoste e accenti rossi.</desc>
  <rect width="1200" height="630" fill="#0b0d16"/>
  <rect x="40" y="40" width="1120" height="550" rx="44" fill="#101421" stroke="#ff4d4d" stroke-opacity=".38" stroke-width="2"/>
  <path d="M84 496C182 429 273 403 356 418C479 441 548 529 699 496C827 468 883 374 1012 382C1075 386 1120 409 1152 434" stroke="#ff4d4d" stroke-opacity=".22" stroke-width="3"/>
  <g opacity=".14" fill="#ffffff" font-family="Inter, Arial, sans-serif" font-size="76" font-weight="900">
    <text x="92" y="147">A _ M Y S T E R Y _ W O R D _</text>
    <text x="118" y="548">H A N G M A N _ T H E _ G A M E</text>
  </g>
  <g transform="translate(742 128)" stroke="#f5f7ff" stroke-linecap="round" stroke-linejoin="round">
    <path d="M40 360V28H244" stroke-width="18"/>
    <path d="M114 28V78" stroke-width="14"/>
    <circle cx="114" cy="127" r="38" stroke-width="14"/>
    <path d="M114 166V276" stroke-width="14"/>
    <path d="M114 197L62 238" stroke-width="14"/>
    <path d="M114 197L166 238" stroke-width="14"/>
    <path d="M114 276L74 336" stroke-width="14"/>
    <path d="M114 276L154 336" stroke-width="14"/>
  </g>
  <g font-family="Inter, Arial, sans-serif">
    <text x="100" y="238" fill="#ff4d4d" font-size="34" font-weight="800" letter-spacing="5">WORD CHALLENGE PROJECT</text>
    <text x="96" y="332" fill="#f8fbff" font-size="92" font-weight="950">HangMan</text>
    <text x="100" y="404" fill="#f8fbff" font-size="56" font-weight="850">The Game</text>
    <text x="102" y="468" fill="#c9cfdd" font-size="30" font-weight="600">Parole nascoste, classifica live e prototipo interattivo.</text>
  </g>
  <g transform="translate(100 506)">
    <rect width="82" height="74" rx="18" fill="#ff4d4d" fill-opacity=".16" stroke="#ff4d4d" stroke-opacity=".5"/>
    <rect x="100" width="82" height="74" rx="18" fill="#ffffff" fill-opacity=".08" stroke="#ffffff" stroke-opacity=".14"/>
    <rect x="200" width="82" height="74" rx="18" fill="#ffffff" fill-opacity=".08" stroke="#ffffff" stroke-opacity=".14"/>
    <rect x="300" width="82" height="74" rx="18" fill="#ffffff" fill-opacity=".08" stroke="#ffffff" stroke-opacity=".14"/>
    <text x="25" y="50" fill="#f8fbff" font-family="Inter, Arial, sans-serif" font-size="34" font-weight="900">H</text>
    <text x="125" y="50" fill="#f8fbff" font-family="Inter, Arial, sans-serif" font-size="34" font-weight="900">A</text>
    <text x="225" y="50" fill="#f8fbff" font-family="Inter, Arial, sans-serif" font-size="34" font-weight="900">N</text>
    <text x="325" y="50" fill="#f8fbff" font-family="Inter, Arial, sans-serif" font-size="34" font-weight="900">G</text>
  </g>
</svg>
